<svg xmlns="http://www.w3.org/2000/svg" xmlns:xlink="http://www.w3.org/1999/xlink" width="139.881" height="74.462" viewBox="0 0 139.881 74.462">
  <defs>
    <linearGradient id="linear-gradient" y1="0.45" x2="1" y2="0.55" gradientUnits="objectBoundingBox">
      <stop offset="0" stop-color="#424242"/>
      <stop offset="1" stop-color="#909090"/>
    </linearGradient>
  </defs>
  <g id="logo" transform="translate(-140 -48.81)">
    <path id="Shape_2" data-name="Shape 2" d="M252.063,119.3H152.51a10.522,10.522,0,0,1-7.427-3.027,10.185,10.185,0,0,1-3.076-7.309,10.432,10.432,0,0,1,10.5-10.335h99.553V119.3Z" fill="#f0f0f0"/>
    <rect id="Shape_4" data-name="Shape 4" width="108.52" height="0.93" transform="translate(145.26 116.2)" fill="#d8d8d8"/>
    <rect id="Shape_4_copy" data-name="Shape 4 copy" width="108.52" height="0.93" transform="translate(144.34 114.35)" fill="#d8d8d8"/>
    <rect id="Shape_4_copy_2" data-name="Shape 4 copy 2" width="108.06" height="0.93" transform="translate(144.34 112.5)" fill="#d8d8d8"/>
    <rect id="Shape_4_copy_6" data-name="Shape 4 copy 6" width="108.06" height="0.93" transform="translate(144.34 105.09)" fill="#d8d8d8"/>
    <rect id="Shape_4_copy_3" data-name="Shape 4 copy 3" width="108.52" height="0.93" transform="translate(143.41 110.65)" fill="#d8d8d8"/>
    <rect id="Shape_4_copy_4" data-name="Shape 4 copy 4" width="108.52" height="0.93" transform="translate(143.41 108.79)" fill="#d8d8d8"/>
    <rect id="Shape_4_copy_5" data-name="Shape 4 copy 5" width="108.4" height="0.93" transform="translate(143.41 106.94)" fill="#d8d8d8"/>
    <rect id="Shape_4_copy_7" data-name="Shape 4 copy 7" width="108.52" height="0.93" transform="translate(144.34 103.24)" fill="#d8d8d8"/>
    <rect id="Shape_4_copy_8" data-name="Shape 4 copy 8" width="108.52" height="0.93" transform="translate(145.26 101.39)" fill="#d8d8d8"/>
    <path id="Shape_1" data-name="Shape 1" d="M253.73,121H152.03A12.029,12.029,0,0,1,140,108.97v-.23a11.8,11.8,0,0,1,11.8-11.8H253.73V99.6l-101.467-.022a9.5,9.5,0,0,0-9.255,9.486,9.266,9.266,0,0,0,9.255,9.256l101.467-.129V121h0Z" fill="#494949"/>
    <path id="Shape_1_copy" data-name="Shape 1 copy" d="M140.372,108.032h0l-.179-45.039A12.249,12.249,0,0,1,140,60.84v-.23a11.8,11.8,0,0,1,11.8-11.8H254.03V72.87h-.3l.107,25.547-5.182.185c-.2,0-20.573-.118-42.839-.118-24.914,0-55.272.149-58.414.858a8.8,8.8,0,0,0-5.669,4.836A15.134,15.134,0,0,0,140.372,108.032Z" fill="url(#linear-gradient)"/>
    <path id="Shape_11" data-name="Shape 11" d="M151.762,105.476h12.524L164,115.333l-6.143-3.762L152,115.333" fill="#79b260"/>
    <text id="ONLINE" transform="translate(274.881 123.272) rotate(-90)" fill="#5b5b5b" font-size="21.115" font-family="SegoeUI, Segoe UI"><tspan x="0" y="0">ONLINE</tspan></text>
    <text id="BOOKS_" data-name="BOOKS " transform="translate(156 87)" fill="#fff" font-size="28.356" font-family="SegoeUI, Segoe UI"><tspan x="0" y="0">BOOKS </tspan></text>
  </g>
</svg>